<?xml version="1.0" encoding="utf-8"?>
<!-- Generator: Adobe Illustrator 27.1.1, SVG Export Plug-In . SVG Version: 6.00 Build 0)  -->
<svg version="1.1" id="Layer_1" xmlns="http://www.w3.org/2000/svg" xmlns:xlink="http://www.w3.org/1999/xlink" x="0px" y="0px"
	 viewBox="0 0 512 512" style="enable-background:new 0 0 512 512;" xml:space="preserve">
<style type="text/css">
	.st0{fill:#A4161A;}
</style>
<path class="st0" d="M83.9,278.4C93.1,272,99,262.1,99,251c0-19.4-18-35.2-40.2-35.2S18.6,231.6,18.6,251c0,11.1,5.9,21,15.1,27.5
	c0,0.1,0,0.1,0,0.2v10c0,4.2,3.4,7.5,7.5,7.5h7.5v-7.5c0-1.4,1.1-2.5,2.5-2.5c1.4,0,2.5,1.1,2.5,2.5v7.5h10v-7.5
	c0-1.4,1.1-2.5,2.5-2.5c1.4,0,2.5,1.1,2.5,2.5v7.5h7.5c4.2,0,7.5-3.4,7.5-7.5v-10C83.9,278.5,83.9,278.5,83.9,278.4z M53.8,256
	c0,5.5-4.5,10-10,10s-10-4.5-10-10s4.5-10,10-10S53.8,250.5,53.8,256z M73.9,266c-5.5,0-10-4.5-10-10s4.5-10,10-10s10,4.5,10,10
	S79.4,266,73.9,266z"/>
<path class="st0" d="M179.4,278.4c9.2-6.5,15.1-16.3,15.1-27.5c0-19.4-18-35.2-40.2-35.2S114,231.6,114,251c0,11.1,5.9,21,15.1,27.5
	c0,0.1,0,0.1,0,0.2v10c0,4.2,3.4,7.5,7.5,7.5h7.5v-7.5c0-1.4,1.1-2.5,2.5-2.5s2.5,1.1,2.5,2.5v7.5h10v-7.5c0-1.4,1.1-2.5,2.5-2.5
	c1.4,0,2.5,1.1,2.5,2.5v7.5h7.5c4.2,0,7.5-3.4,7.5-7.5v-10C179.4,278.5,179.4,278.5,179.4,278.4z M149.2,256c0,5.5-4.5,10-10,10
	c-5.5,0-10-4.5-10-10s4.5-10,10-10C144.7,246,149.2,250.5,149.2,256z M169.3,266c-5.5,0-10-4.5-10-10s4.5-10,10-10
	c5.5,0,10,4.5,10,10S174.8,266,169.3,266z"/>
<path class="st0" d="M277.7,278.4c9.2-6.5,15.1-16.3,15.1-27.5c0-19.4-18-35.2-40.2-35.2s-40.2,15.8-40.2,35.2
	c0,11.1,5.9,21,15.1,27.5c0,0.1,0,0.1,0,0.2v10c0,4.2,3.4,7.5,7.5,7.5h7.5v-7.5c0-1.4,1.1-2.5,2.5-2.5c1.4,0,2.5,1.1,2.5,2.5v7.5h10
	v-7.5c0-1.4,1.1-2.5,2.5-2.5s2.5,1.1,2.5,2.5v7.5h7.5c4.2,0,7.5-3.4,7.5-7.5v-10C277.7,278.5,277.7,278.5,277.7,278.4z M247.6,256
	c0,5.5-4.5,10-10,10s-10-4.5-10-10s4.5-10,10-10S247.6,250.5,247.6,256z M267.7,266c-5.5,0-10-4.5-10-10s4.5-10,10-10s10,4.5,10,10
	S273.2,266,267.7,266z"/>
<path class="st0" d="M376.1,278.4c9.2-6.5,15.1-16.3,15.1-27.5c0-19.4-18-35.2-40.2-35.2c-22.2,0-40.2,15.8-40.2,35.2
	c0,11.1,5.9,21,15.1,27.5c0,0.1,0,0.1,0,0.2v10c0,4.2,3.4,7.5,7.5,7.5h7.5v-7.5c0-1.4,1.1-2.5,2.5-2.5s2.5,1.1,2.5,2.5v7.5h10v-7.5
	c0-1.4,1.1-2.5,2.5-2.5s2.5,1.1,2.5,2.5v7.5h7.5c4.2,0,7.5-3.4,7.5-7.5v-10C376.1,278.5,376.1,278.5,376.1,278.4z M346,256
	c0,5.5-4.5,10-10,10s-10-4.5-10-10s4.5-10,10-10S346,250.5,346,256z M366.1,266c-5.5,0-10-4.5-10-10s4.5-10,10-10s10,4.5,10,10
	S371.6,266,366.1,266z"/>
<path class="st0" d="M474.5,278.4c9.2-6.5,15.1-16.3,15.1-27.5c0-19.4-18-35.2-40.2-35.2c-22.2,0-40.2,15.8-40.2,35.2
	c0,11.1,5.9,21,15.1,27.5c0,0.1,0,0.1,0,0.2v10c0,4.2,3.4,7.5,7.5,7.5h7.5v-7.5c0-1.4,1.1-2.5,2.5-2.5s2.5,1.1,2.5,2.5v7.5h10v-7.5
	c0-1.4,1.1-2.5,2.5-2.5c1.4,0,2.5,1.1,2.5,2.5v7.5h7.5c4.2,0,7.5-3.4,7.5-7.5v-10C474.5,278.5,474.5,278.5,474.5,278.4z M444.3,256
	c0,5.5-4.5,10-10,10s-10-4.5-10-10s4.5-10,10-10S444.3,250.5,444.3,256z M464.4,266c-5.5,0-10-4.5-10-10s4.5-10,10-10s10,4.5,10,10
	S470,266,464.4,266z"/>
</svg>
