<?xml version="1.0" encoding="utf-8"?>
<!-- Generator: Adobe Illustrator 27.1.1, SVG Export Plug-In . SVG Version: 6.00 Build 0)  -->
<svg version="1.1" id="Layer_1" xmlns="http://www.w3.org/2000/svg" xmlns:xlink="http://www.w3.org/1999/xlink" x="0px" y="0px"
	 viewBox="0 0 118.4 37.1" style="enable-background:new 0 0 118.4 37.1;" xml:space="preserve">
<style type="text/css">
	.st0{fill:#A4161A;}
</style>
<g>
	<path class="st0" d="M24.5,22.8c1.8-1.3,3-3.2,3-5.4c0-3.8-3.5-6.9-7.9-6.9s-7.9,3.1-7.9,6.9c0,2.2,1.2,4.1,3,5.4c0,0,0,0,0,0v2
		c0,0.8,0.7,1.5,1.5,1.5h1.5v-1.5c0-0.3,0.2-0.5,0.5-0.5s0.5,0.2,0.5,0.5v1.5h2v-1.5c0-0.3,0.2-0.5,0.5-0.5s0.5,0.2,0.5,0.5v1.5H23
		c0.8,0,1.5-0.7,1.5-1.5V22.8C24.5,22.9,24.5,22.9,24.5,22.8z M18.6,18.5c0,1.1-0.9,2-2,2s-2-0.9-2-2s0.9-2,2-2S18.6,17.4,18.6,18.5
		z M22.5,20.4c-1.1,0-2-0.9-2-2s0.9-2,2-2c1.1,0,2,0.9,2,2S23.6,20.4,22.5,20.4z"/>
	<path class="st0" d="M43.2,22.8c1.8-1.3,3-3.2,3-5.4c0-3.8-3.5-6.9-7.9-6.9s-7.9,3.1-7.9,6.9c0,2.2,1.2,4.1,3,5.4c0,0,0,0,0,0v2
		c0,0.8,0.7,1.5,1.5,1.5h1.5v-1.5c0-0.3,0.2-0.5,0.5-0.5c0.3,0,0.5,0.2,0.5,0.5v1.5h2v-1.5c0-0.3,0.2-0.5,0.5-0.5s0.5,0.2,0.5,0.5
		v1.5h1.5c0.8,0,1.5-0.7,1.5-1.5V22.8C43.2,22.9,43.2,22.9,43.2,22.8z M37.3,18.5c0,1.1-0.9,2-2,2c-1.1,0-2-0.9-2-2s0.9-2,2-2
		C36.4,16.5,37.3,17.4,37.3,18.5z M41.2,20.4c-1.1,0-2-0.9-2-2s0.9-2,2-2c1.1,0,2,0.9,2,2S42.3,20.4,41.2,20.4z"/>
	<path class="st0" d="M62.4,22.8c1.8-1.3,3-3.2,3-5.4c0-3.8-3.5-6.9-7.9-6.9s-7.9,3.1-7.9,6.9c0,2.2,1.2,4.1,3,5.4c0,0,0,0,0,0v2
		c0,0.8,0.7,1.5,1.5,1.5h1.5v-1.5c0-0.3,0.2-0.5,0.5-0.5c0.3,0,0.5,0.2,0.5,0.5v1.5h2v-1.5c0-0.3,0.2-0.5,0.5-0.5s0.5,0.2,0.5,0.5
		v1.5h1.5c0.8,0,1.5-0.7,1.5-1.5V22.8C62.4,22.9,62.4,22.9,62.4,22.8z M56.5,18.5c0,1.1-0.9,2-2,2c-1.1,0-2-0.9-2-2s0.9-2,2-2
		C55.6,16.5,56.5,17.4,56.5,18.5z M60.5,20.4c-1.1,0-2-0.9-2-2s0.9-2,2-2c1.1,0,2,0.9,2,2S61.5,20.4,60.5,20.4z"/>
	<path class="st0" d="M81.7,22.8c1.8-1.3,3-3.2,3-5.4c0-3.8-3.5-6.9-7.9-6.9s-7.9,3.1-7.9,6.9c0,2.2,1.2,4.1,3,5.4c0,0,0,0,0,0v2
		c0,0.8,0.7,1.5,1.5,1.5h1.5v-1.5c0-0.3,0.2-0.5,0.5-0.5s0.5,0.2,0.5,0.5v1.5h2v-1.5c0-0.3,0.2-0.5,0.5-0.5s0.5,0.2,0.5,0.5v1.5h1.5
		c0.8,0,1.5-0.7,1.5-1.5V22.8C81.7,22.9,81.7,22.9,81.7,22.8z M75.8,18.5c0,1.1-0.9,2-2,2s-2-0.9-2-2s0.9-2,2-2S75.8,17.4,75.8,18.5
		z M79.7,20.4c-1.1,0-2-0.9-2-2s0.9-2,2-2c1.1,0,2,0.9,2,2S80.8,20.4,79.7,20.4z"/>
	<path class="st0" d="M100.9,22.8c1.8-1.3,3-3.2,3-5.4c0-3.8-3.5-6.9-7.9-6.9s-7.9,3.1-7.9,6.9c0,2.2,1.2,4.1,3,5.4c0,0,0,0,0,0v2
		c0,0.8,0.7,1.5,1.5,1.5h1.5v-1.5c0-0.3,0.2-0.5,0.5-0.5c0.3,0,0.5,0.2,0.5,0.5v1.5h2v-1.5c0-0.3,0.2-0.5,0.5-0.5
		c0.3,0,0.5,0.2,0.5,0.5v1.5h1.5c0.8,0,1.5-0.7,1.5-1.5V22.8C100.9,22.9,100.9,22.9,100.9,22.8z M95,18.5c0,1.1-0.9,2-2,2
		s-2-0.9-2-2s0.9-2,2-2S95,17.4,95,18.5z M99,20.4c-1.1,0-2-0.9-2-2s0.9-2,2-2s2,0.9,2,2S100.1,20.4,99,20.4z"/>
</g>
</svg>
